<svg width="372" height="764" viewBox="0 0 372 764" fill="none" xmlns="http://www.w3.org/2000/svg">
<g filter="url(#filter0_dd)">
<path d="M181.139 0C278.97 0 403.33 286 358.618 402.5C285.868 592.051 416.875 756 319.044 756C221.213 756 4 568.691 4 366.358C4 164.024 83.3077 0 181.139 0Z" fill="#1200FF"/>
<path d="M181.139 0C278.97 0 403.33 286 358.618 402.5C285.868 592.051 416.875 756 319.044 756C221.213 756 4 568.691 4 366.358C4 164.024 83.3077 0 181.139 0Z" fill="url(#paint0_radial)"/>
<path d="M181.139 0.5C205.366 0.5 231.354 18.225 256.052 46.8345C280.727 75.4189 304.023 114.763 322.874 157.763C341.725 200.762 356.121 247.392 363.014 290.54C369.908 333.7 369.283 373.316 358.151 402.321C321.722 497.237 336.315 585.736 347.744 650.419C347.981 651.761 348.217 653.093 348.451 654.414C351.037 669.018 353.395 682.341 354.88 694.192C356.499 707.118 357.071 718.252 355.775 727.351C354.479 736.442 351.325 743.451 345.532 748.198C339.733 752.95 331.211 755.5 319.044 755.5C294.722 755.5 262.898 743.848 228.806 723.144C194.729 702.449 158.441 672.744 125.203 636.715C58.7182 564.647 4.5 467.352 4.5 366.358C4.5 265.249 24.3165 173.737 56.3329 107.521C88.3661 41.2703 132.523 0.5 181.139 0.5Z" stroke="black"/>
<path d="M181.139 0.5C205.366 0.5 231.354 18.225 256.052 46.8345C280.727 75.4189 304.023 114.763 322.874 157.763C341.725 200.762 356.121 247.392 363.014 290.54C369.908 333.7 369.283 373.316 358.151 402.321C321.722 497.237 336.315 585.736 347.744 650.419C347.981 651.761 348.217 653.093 348.451 654.414C351.037 669.018 353.395 682.341 354.88 694.192C356.499 707.118 357.071 718.252 355.775 727.351C354.479 736.442 351.325 743.451 345.532 748.198C339.733 752.95 331.211 755.5 319.044 755.5C294.722 755.5 262.898 743.848 228.806 723.144C194.729 702.449 158.441 672.744 125.203 636.715C58.7182 564.647 4.5 467.352 4.5 366.358C4.5 265.249 24.3165 173.737 56.3329 107.521C88.3661 41.2703 132.523 0.5 181.139 0.5Z" stroke="url(#paint1_linear)"/>
</g>
<defs>
<filter id="filter0_dd" x="0" y="0" width="372" height="764" filterUnits="userSpaceOnUse" color-interpolation-filters="sRGB">
<feFlood flood-opacity="0" result="BackgroundImageFix"/>
<feColorMatrix in="SourceAlpha" type="matrix" values="0 0 0 0 0 0 0 0 0 0 0 0 0 0 0 0 0 0 127 0"/>
<feOffset dy="4"/>
<feGaussianBlur stdDeviation="2"/>
<feColorMatrix type="matrix" values="0 0 0 0 0 0 0 0 0 0 0 0 0 0 0 0 0 0 0.25 0"/>
<feBlend mode="normal" in2="BackgroundImageFix" result="effect1_dropShadow"/>
<feColorMatrix in="SourceAlpha" type="matrix" values="0 0 0 0 0 0 0 0 0 0 0 0 0 0 0 0 0 0 127 0"/>
<feOffset dy="4"/>
<feGaussianBlur stdDeviation="2"/>
<feColorMatrix type="matrix" values="0 0 0 0 0 0 0 0 0 0 0 0 0 0 0 0 0 0 0.25 0"/>
<feBlend mode="normal" in2="effect1_dropShadow" result="effect2_dropShadow"/>
<feBlend mode="normal" in="SourceGraphic" in2="effect2_dropShadow" result="shape"/>
</filter>
<radialGradient id="paint0_radial" cx="0" cy="0" r="1" gradientUnits="userSpaceOnUse" gradientTransform="translate(186 419.5) rotate(-97.9456) scale(562.826 380.918)">
<stop offset="0.253125" stop-color="#FC47DA"/>
<stop offset="1" stop-color="white" stop-opacity="0"/>
</radialGradient>
<linearGradient id="paint1_linear" x1="4" y1="366.358" x2="358.278" y2="366.358" gradientUnits="userSpaceOnUse">
<stop stop-color="white"/>
<stop offset="1" stop-color="white" stop-opacity="0"/>
</linearGradient>
</defs>
</svg>
