<svg width="114" height="123" viewBox="0 0 114 123" fill="none" xmlns="http://www.w3.org/2000/svg">
<path d="M44.1313 102.061C42.9913 102.091 41.9913 101.251 41.8313 100.101C41.6613 98.9007 42.4713 97.7907 43.6513 97.5607C42.3513 90.1907 38.8013 86.1307 35.0513 81.8407C32.1313 78.5007 29.1013 75.0307 26.7113 69.9207C24.3613 64.8907 23.0713 59.6907 23.1113 54.2907C23.1613 48.8907 24.5313 43.3307 27.5113 37.5807C27.5313 37.5407 27.5513 37.5107 27.5713 37.4707C31.4813 30.8507 36.9513 26.4307 43.0413 23.9507C48.1513 21.8607 53.7013 21.1507 59.1413 21.6507C64.5613 22.1507 69.8713 23.8507 74.5113 26.5907C80.4113 30.0807 85.2613 35.2607 87.9313 41.8007C89.3713 45.3407 90.3513 49.2907 90.4713 53.6207C90.5913 57.9307 89.8513 62.5807 87.8613 67.5007C85.2013 74.0907 81.6813 78.1807 78.3913 82.0107C75.3613 85.5407 72.5413 88.8207 70.9713 93.8507C71.8613 94.0607 72.5613 94.7907 72.7013 95.7507C72.8713 96.9907 72.0013 98.1407 70.7613 98.3107L69.9913 98.4207C69.8513 99.5107 69.7613 100.681 69.7213 101.931L69.9713 101.891C71.2113 101.721 72.3613 102.591 72.5313 103.831C72.7013 105.071 71.8313 106.221 70.5913 106.391L69.8113 106.501C69.8213 106.651 69.8313 106.801 69.8413 106.951C69.9113 107.831 69.9213 108.681 69.8713 109.491L70.0013 109.471C71.2513 109.321 72.3813 110.211 72.5413 111.451C72.6913 112.701 71.8013 113.831 70.5613 113.991L68.8813 114.201C67.6813 117.311 65.5413 119.671 63.0113 121.141C61.2713 122.151 59.3413 122.731 57.4013 122.851C55.4313 122.971 53.4413 122.601 51.6213 121.721C49.5413 120.701 47.6813 119.011 46.3313 116.581C45.6813 116.251 45.2013 115.611 45.1013 114.831C45.0613 114.521 45.0913 114.221 45.1713 113.941C44.7813 112.781 44.4813 111.511 44.3013 110.111L44.2313 110.121C42.9913 110.291 41.8413 109.421 41.6713 108.181C41.5013 106.941 42.3713 105.791 43.6113 105.621L44.1513 105.541C44.1913 104.321 44.1813 103.161 44.1313 102.061ZM66.4113 40.3407C66.9913 40.3507 67.5813 40.4607 68.1513 40.6507C69.3513 41.0607 70.5013 41.8507 71.3913 42.9007C72.2813 43.9607 72.9213 45.2907 73.0813 46.7707C73.1513 47.4207 73.1313 48.0907 73.0013 48.7807C73.6213 49.3507 74.1413 49.9807 74.5313 50.6607C75.1713 51.7507 75.5013 52.9607 75.4613 54.1907C75.4213 55.4307 75.0213 56.6707 74.1713 57.8107C73.6613 58.5007 72.9913 59.1507 72.1513 59.7407C72.2113 61.5807 71.6613 63.2407 70.7713 64.5207C69.7813 65.9507 68.3613 66.9407 66.8713 67.2507C66.5113 68.5407 65.6413 69.6807 64.5413 70.4707C63.1013 71.5007 61.2213 71.9807 59.5013 71.5107C58.3213 71.1907 57.2413 70.4407 56.4613 69.1607C55.5213 70.5807 54.2813 71.3407 52.9813 71.6107C51.3213 71.9607 49.6013 71.4507 48.3013 70.4407C47.3013 69.6607 46.5413 68.5707 46.2413 67.3307C45.7613 67.2907 45.2713 67.1907 44.8013 67.0307C43.6313 66.6307 42.5013 65.8707 41.6313 64.8507C40.7513 63.8307 40.1013 62.5507 39.9013 61.1207C39.8013 60.4107 39.8113 59.6607 39.9613 58.9007C39.4213 58.4007 38.9613 57.8407 38.5813 57.2307C37.9113 56.1407 37.5313 54.9107 37.5513 53.6407C37.5713 52.3607 37.9713 51.0707 38.8513 49.8707C39.3413 49.2007 39.9913 48.5607 40.8013 47.9707C40.7913 47.7707 40.7913 47.5707 40.8013 47.3807C40.8713 45.5207 41.5513 43.8907 42.5413 42.6807C42.5713 42.6507 42.5913 42.6207 42.6213 42.5907C43.6113 41.4207 44.9013 40.6407 46.2413 40.4107C46.2913 40.2307 46.3413 40.0607 46.4013 39.8807C46.8713 38.6207 47.8213 37.5407 48.9913 36.8607C50.1713 36.1707 51.5913 35.8707 52.9713 36.1607C54.2113 36.4207 55.4013 37.1307 56.3213 38.4307C57.2413 37.1307 58.4313 36.4207 59.6713 36.1607C60.9313 35.9007 62.2213 36.1207 63.3313 36.6807C64.4213 37.2307 65.3613 38.1207 65.9313 39.1807C66.1513 39.5607 66.3113 39.9407 66.4113 40.3407ZM66.7913 64.3507C67.4113 64.0907 68.0113 63.5907 68.4713 62.9207C69.1213 61.9707 69.4913 60.7007 69.3113 59.2707L69.3013 59.2307V59.2007C69.2313 58.6607 69.4813 58.1007 69.9813 57.8007C70.8513 57.2907 71.4813 56.7307 71.9213 56.1307C72.4013 55.4707 72.6413 54.7807 72.6613 54.1007C72.6813 53.4107 72.4813 52.7207 72.1013 52.0707C71.7513 51.4707 71.2513 50.9207 70.6413 50.4507C70.1213 50.1107 69.8813 49.4507 70.0913 48.8307C70.3013 48.2107 70.3513 47.6207 70.2913 47.0507C70.1913 46.1707 69.8013 45.3607 69.2513 44.7007C68.6913 44.0407 67.9813 43.5507 67.2613 43.3007C66.9513 43.2007 66.6413 43.1407 66.3513 43.1407C66.1313 43.8007 65.7713 44.4607 65.2313 45.1007C64.7313 45.6907 63.8513 45.7707 63.2613 45.2707C62.6713 44.7707 62.5913 43.8907 63.0913 43.3007C63.9113 42.3307 63.9213 41.3107 63.4913 40.5207C63.1913 39.9607 62.6913 39.4907 62.1013 39.2007C61.5313 38.9107 60.8913 38.7907 60.2813 38.9207C59.3913 39.1007 58.5313 39.8507 57.9713 41.4107V65.1107C58.0813 65.2707 58.1513 65.4507 58.1813 65.6607C58.5013 67.6207 59.3313 68.5607 60.2613 68.8207C61.1213 69.0607 62.1213 68.7707 62.9213 68.2007C63.7013 67.6407 64.2613 66.8307 64.2713 65.9807C64.2813 65.0107 63.5413 63.9007 61.5713 62.8907C60.8813 62.5407 60.6013 61.6907 60.9513 61.0007C61.3013 60.3107 62.1513 60.0307 62.8413 60.3807C65.0713 61.5107 66.2913 62.9207 66.7913 64.3507ZM46.3713 43.2707C45.8013 43.4607 45.2413 43.8507 44.7713 44.3907C44.7513 44.4207 44.7313 44.4407 44.7113 44.4607C44.0713 45.2407 43.6413 46.2807 43.5913 47.4807C43.5813 47.8007 43.5913 48.1407 43.6413 48.4907C43.7113 49.0207 43.4713 49.5707 42.9913 49.8807C42.1513 50.4007 41.5313 50.9607 41.1013 51.5507C40.5813 52.2507 40.3513 52.9907 40.3413 53.6907C40.3313 54.4107 40.5513 55.1207 40.9513 55.7707C41.2913 56.3207 41.7513 56.8207 42.3213 57.2407C42.8313 57.5907 43.0613 58.2407 42.8613 58.8507C42.6413 59.5107 42.5913 60.1507 42.6713 60.7507C42.7913 61.6107 43.1913 62.3907 43.7413 63.0307C44.2913 63.6707 44.9813 64.1407 45.6913 64.3807C45.9213 64.4607 46.1513 64.5107 46.3713 64.5307C46.8813 63.0407 48.1613 61.5707 50.4913 60.3807C51.1813 60.0307 52.0213 60.3007 52.3813 60.9907C52.7313 61.6807 52.4613 62.5207 51.7713 62.8807C49.6813 63.9407 48.9013 65.1407 48.9013 66.1807C48.9013 66.9707 49.3613 67.7207 50.0313 68.2407C50.7113 68.7707 51.5913 69.0407 52.4113 68.8707C53.4413 68.6607 54.4413 67.6807 54.9713 65.5407C55.0013 65.4007 55.0613 65.2707 55.1313 65.1507V42.6407C55.1013 42.5907 55.0713 42.5307 55.0413 42.4707L55.0313 42.4507L55.0213 42.4307L55.0113 42.4107V42.4007V42.3907L55.0013 42.3707V42.3607V42.3507C54.9913 42.3107 54.9813 42.2707 54.9713 42.2307C54.4413 40.1007 53.4413 39.1307 52.4113 38.9207C51.7413 38.7807 51.0213 38.9407 50.4113 39.3007C49.7913 39.6607 49.2913 40.2207 49.0513 40.8607C48.7413 41.7007 48.9313 42.7407 50.0013 43.7307C50.5713 44.2607 50.6013 45.1407 50.0813 45.7107C49.5513 46.2807 48.6713 46.3107 48.1013 45.7907C47.2313 44.9707 46.6713 44.1207 46.3713 43.2707ZM46.6613 47.9007C47.2113 47.3607 48.1013 47.3607 48.6513 47.9207C49.1913 48.4707 49.1913 49.3607 48.6313 49.9107C47.6613 50.8607 47.1513 52.1007 47.1013 53.3507C47.0513 54.6507 47.4713 55.9907 48.3613 57.0907C48.8513 57.6907 48.7513 58.5807 48.1513 59.0607C47.5513 59.5507 46.6613 59.4507 46.1813 58.8507C44.8513 57.2007 44.2213 55.2007 44.3013 53.2407C44.3713 51.2907 45.1513 49.3807 46.6613 47.9007ZM63.4313 49.3807C62.8013 48.9207 62.6613 48.0507 63.1213 47.4207C63.5813 46.7907 64.4513 46.6507 65.0813 47.1107C65.3213 47.2907 65.5513 47.4707 65.7613 47.6607C67.3413 49.0907 68.2113 50.9707 68.3713 52.9207C68.5313 54.8507 67.9913 56.8407 66.7713 58.5107C66.7513 58.5407 66.7213 58.5807 66.6913 58.6107C66.5213 58.8407 66.3513 59.0407 66.1913 59.2307C65.6713 59.8107 64.7813 59.8507 64.2013 59.3307C63.6213 58.8107 63.5813 57.9207 64.1013 57.3407C64.2313 57.1907 64.3413 57.0607 64.4413 56.9307C64.4613 56.9007 64.4713 56.8807 64.4913 56.8507C65.3013 55.7307 65.6613 54.4107 65.5613 53.1307C65.4613 51.8707 64.9013 50.6607 63.8813 49.7407C63.7413 49.6207 63.5913 49.5007 63.4313 49.3807ZM2.18126 58.8607C1.01126 58.8907 0.0412565 57.9807 0.0012565 56.8107C-0.0387435 55.6407 0.881256 54.6707 2.05126 54.6307L10.7513 54.3307C11.9213 54.2907 12.8913 55.2107 12.9313 56.3807C12.9713 57.5507 12.0513 58.5207 10.8813 58.5607L2.18126 58.8607ZM110.681 50.2507C111.841 50.1307 112.881 50.9807 113.001 52.1407C113.121 53.3007 112.271 54.3407 111.111 54.4607L102.451 55.3707C101.291 55.4907 100.251 54.6407 100.131 53.4807C100.011 52.3207 100.861 51.2807 102.021 51.1607L110.681 50.2507ZM94.9113 14.7807C95.5613 13.8107 96.8713 13.5507 97.8413 14.2007C98.8113 14.8507 99.0713 16.1607 98.4213 17.1307L93.5813 24.3707C92.9313 25.3407 91.6213 25.6007 90.6513 24.9507C89.6813 24.3007 89.4213 22.9907 90.0713 22.0207L94.9113 14.7807ZM57.6313 2.06071C57.6613 0.890713 58.6313 -0.0292867 59.7913 0.000713306C60.9613 0.0307133 61.8813 1.00071 61.8513 2.16071L61.6313 10.8607C61.6013 12.0307 60.6313 12.9507 59.4713 12.9207C58.3013 12.8907 57.3813 11.9207 57.4113 10.7607L57.6313 2.06071ZM13.8813 15.5307C13.0213 14.7307 12.9813 13.3907 13.7713 12.5407C14.5713 11.6807 15.9113 11.6407 16.7613 12.4307L23.1313 18.3707C23.9913 19.1707 24.0313 20.5107 23.2413 21.3607C22.4413 22.2207 21.1013 22.2607 20.2513 21.4707L13.8813 15.5307ZM47.8813 96.9507L66.3713 94.3307C67.9613 87.6307 71.4213 83.6007 75.1713 79.2507C78.2513 75.6707 81.5313 71.8507 83.9313 65.9107C85.6913 61.5607 86.3413 57.4807 86.2413 53.7207C86.1413 49.9707 85.2813 46.5107 84.0013 43.3807C81.7013 37.7507 77.4913 33.2707 72.3613 30.2307C68.2513 27.8007 63.5613 26.2907 58.7713 25.8607C54.0013 25.4207 49.1313 26.0507 44.6413 27.8807C39.3813 30.0307 34.6513 33.8507 31.2513 39.6007C28.6113 44.7207 27.3913 49.6207 27.3513 54.3307C27.3113 59.0707 28.4613 63.6607 30.5513 68.1307C32.6813 72.6907 35.5213 75.9307 38.2413 79.0507C42.4713 83.9007 46.4813 88.4907 47.8813 96.9507ZM65.6213 99.0207L48.3513 101.471C48.4013 102.571 48.4213 103.721 48.4013 104.941L65.4513 102.521C65.4713 101.291 65.5213 100.121 65.6213 99.0207ZM48.4913 109.521C48.6113 110.441 48.7913 111.281 49.0213 112.061L65.5713 110.021C65.6813 109.161 65.7013 108.251 65.6213 107.281V107.261L65.6113 107.091L48.4913 109.521ZM51.3713 116.361C52.0113 117.031 52.7213 117.551 53.4713 117.911C54.6213 118.471 55.8913 118.701 57.1413 118.631C58.4213 118.551 59.7113 118.161 60.8813 117.481C61.9813 116.841 62.9713 115.951 63.7613 114.831L51.3713 116.361Z" fill="white"/>
</svg>
