<svg width="121" height="123" viewBox="0 0 121 123" fill="none" xmlns="http://www.w3.org/2000/svg">
<path d="M25.6 60.0555C24.94 61.4355 23.28 62.0155 21.9 61.3555C20.52 60.6955 19.94 59.0455 20.6 57.6555C22.06 54.5955 23.86 51.7255 25.94 49.0855C28.04 46.4255 30.42 44.0155 33.03 41.8955C34.22 40.9255 35.97 41.1055 36.93 42.2955C37.9 43.4855 37.72 45.2355 36.53 46.1955C34.22 48.0755 32.12 50.1955 30.29 52.5155C28.46 54.8455 26.89 57.3655 25.6 60.0555ZM94.75 93.2655L97.97 102.745L99.59 97.1155L98.8 96.2455C98.44 95.7255 98.36 95.2655 98.56 94.8755C98.99 94.0255 99.88 94.1855 100.71 94.1855C101.58 94.1855 102.66 94.0255 102.93 95.1155C103.02 95.4755 102.91 95.8655 102.65 96.2555L101.86 97.1255L103.48 102.756L106.4 93.2755C108.51 95.1755 114.74 95.5555 117.06 96.8455C117.79 97.2555 118.46 97.7755 118.99 98.4755C119.8 99.5455 120.29 100.936 120.43 102.705L120.91 107.855C120.79 109.105 120.08 109.826 118.68 109.936H100.72H82.46C81.06 109.826 80.35 109.105 80.23 107.855L80.71 102.705C80.85 100.936 81.34 99.5455 82.15 98.4755C82.68 97.7755 83.35 97.2555 84.08 96.8455C86.41 95.5455 92.64 95.1655 94.75 93.2655ZM14.51 93.2655L17.73 102.745L19.35 97.1155L18.56 96.2455C18.2 95.7255 18.12 95.2655 18.32 94.8755C18.75 94.0255 19.64 94.1855 20.47 94.1855C21.34 94.1855 22.42 94.0255 22.69 95.1155C22.78 95.4755 22.67 95.8655 22.41 96.2555L21.62 97.1255L23.24 102.756L26.16 93.2755C28.27 95.1755 34.5 95.5555 36.82 96.8455C37.55 97.2555 38.22 97.7755 38.75 98.4755C39.56 99.5455 40.05 100.936 40.19 102.705L40.67 107.855C40.55 109.105 39.84 109.826 38.44 109.936H20.49H2.23C0.83 109.826 0.12 109.105 0 107.855L0.48 102.705C0.62 100.936 1.11 99.5455 1.92 98.4755C2.45 97.7755 3.12 97.2555 3.85 96.8455C6.17 95.5455 12.41 95.1655 14.51 93.2655ZM12.98 79.7155C13.23 79.7855 13.48 79.7855 13.74 79.7355L13.28 76.0955C13.52 75.1955 13.88 74.4955 14.35 73.9855C14.85 73.4455 15.47 73.1155 16.22 72.9755C17.21 72.9055 17.51 73.6255 18.49 74.2555C21.49 76.1755 24.03 76.8255 27.74 76.8655L27.28 79.1755C27.21 79.2755 27.18 79.3955 27.19 79.5255C27.19 79.5455 27.2 79.5755 27.2 79.5955L27.14 79.9155C27.24 79.9255 27.34 79.9255 27.43 79.9255C27.52 79.9855 27.64 80.0155 27.76 80.0055C28.4 79.9455 28.8 80.0055 28.9 80.2255C29.05 80.5155 28.92 81.1155 28.5 82.0755L26.47 85.4155C25.72 86.6555 24.95 87.9055 23.98 88.8155C23.05 89.6855 21.9 90.2655 20.33 90.2655C18.88 90.2655 17.79 89.7055 16.88 88.8755C15.94 88.0155 15.18 86.8455 14.46 85.6955L12.66 82.8255L12.65 82.8155C12.1 81.9955 11.81 81.2755 11.79 80.7355C11.78 80.5555 11.81 80.3955 11.87 80.2555C11.92 80.1355 12.01 80.0355 12.13 79.9655C12.34 79.8155 12.62 79.7355 12.98 79.7155ZM28.99 79.0355L29.1 74.3755C28.96 72.4755 28.34 71.0455 27.34 69.9555C24.88 67.2955 20.3 66.6155 16.83 67.8655C16.25 68.0755 15.69 68.3455 15.19 68.6655C13.76 69.5755 12.61 70.8955 12.15 72.5455C12.04 72.9355 11.97 73.3255 11.93 73.7155C11.85 75.3455 11.9 77.3055 12.01 78.8555C11.85 78.9155 11.7 78.9955 11.57 79.0855C11.29 79.2755 11.08 79.5155 10.95 79.8155C10.82 80.0955 10.76 80.4055 10.77 80.7555C10.79 81.4955 11.13 82.3955 11.8 83.3855L13.6 86.2455C14.36 87.4555 15.16 88.6855 16.2 89.6355C17.28 90.6255 18.6 91.2955 20.35 91.2955C22.23 91.2955 23.6 90.6055 24.71 89.5655C25.78 88.5655 26.59 87.2555 27.38 85.9455L29.43 82.5655C29.44 82.5455 29.45 82.5255 29.46 82.5055C30.02 81.2255 30.14 80.3455 29.85 79.7555C29.67 79.3955 29.39 79.1655 28.99 79.0355ZM54.37 12.4455C54.62 12.5155 54.87 12.5155 55.13 12.4655L54.67 8.8255C54.9 7.9255 55.26 7.2255 55.74 6.7155C56.24 6.1755 56.86 5.8455 57.61 5.7055C58.6 5.6355 58.9 6.3555 59.88 6.9855C62.88 8.9055 65.42 9.5555 69.13 9.5955L68.67 11.9055C68.6 12.0055 68.57 12.1255 68.58 12.2555C68.58 12.2755 68.59 12.3055 68.59 12.3255L68.53 12.6455C68.63 12.6555 68.73 12.6555 68.82 12.6555C68.91 12.7155 69.03 12.7455 69.15 12.7355C69.79 12.6755 70.19 12.7355 70.29 12.9455C70.44 13.2355 70.31 13.8355 69.89 14.7955L67.86 18.1355C67.11 19.3755 66.34 20.6255 65.37 21.5355C64.44 22.4055 63.29 22.9855 61.72 22.9855C60.27 22.9855 59.18 22.4255 58.27 21.5955C57.33 20.7355 56.57 19.5655 55.85 18.4155L54.05 15.5455L54.04 15.5355C53.49 14.7155 53.2 13.9955 53.18 13.4555C53.17 13.2755 53.2 13.1155 53.26 12.9755C53.31 12.8555 53.4 12.7555 53.52 12.6855C53.73 12.5455 54.01 12.4655 54.37 12.4455ZM55.9 25.9955L59.12 35.4755L60.74 29.8455L59.95 28.9755C59.59 28.4555 59.51 27.9955 59.71 27.6055C60.14 26.7555 61.03 26.9155 61.86 26.9155C62.73 26.9155 63.81 26.7555 64.08 27.8455C64.17 28.2055 64.06 28.5955 63.8 28.9855L63.01 29.8555L64.63 35.4855L67.56 25.9955C69.67 27.8955 75.9 28.2755 78.22 29.5655C78.95 29.9755 79.62 30.4955 80.15 31.1955C80.96 32.2655 81.45 33.6555 81.59 35.4255L82.07 40.5755C81.95 41.8255 81.24 42.5455 79.84 42.6555H61.88H43.62C42.22 42.5455 41.51 41.8255 41.39 40.5755L41.87 35.4255C42.01 33.6555 42.5 32.2655 43.31 31.1955C43.84 30.4955 44.51 29.9755 45.24 29.5655C47.56 28.2755 53.8 27.8955 55.9 25.9955ZM70.38 11.7755L70.49 7.1155C70.35 5.2155 69.73 3.7855 68.73 2.6955C66.27 0.0355017 61.69 -0.644498 58.22 0.605502C57.64 0.815502 57.09 1.0855 56.58 1.4055C55.16 2.3055 54 3.6355 53.54 5.2755C53.43 5.6655 53.36 6.0555 53.32 6.4455C53.24 8.0755 53.29 10.0355 53.4 11.5855C53.24 11.6455 53.09 11.7255 52.96 11.8155C52.68 12.0055 52.47 12.2455 52.34 12.5455C52.21 12.8255 52.15 13.1355 52.16 13.4855C52.18 14.2255 52.52 15.1255 53.19 16.1155L54.99 18.9755C55.75 20.1855 56.55 21.4155 57.59 22.3655C58.67 23.3555 59.99 24.0255 61.74 24.0255C63.62 24.0255 64.99 23.3355 66.1 22.2955C67.17 21.2855 67.98 19.9855 68.77 18.6755L70.82 15.2955C70.83 15.2755 70.84 15.2555 70.85 15.2355C71.41 13.9555 71.53 13.0755 71.24 12.4855C71.06 12.1255 70.78 11.8955 70.38 11.7755ZM93.21 79.7155C92.85 79.7355 92.58 79.8155 92.38 79.9455C92.26 80.0255 92.18 80.1255 92.12 80.2355C92.06 80.3655 92.03 80.5255 92.04 80.7155C92.06 81.2655 92.34 81.9755 92.9 82.7955L92.91 82.8055L94.71 85.6755C95.43 86.8255 96.19 87.9955 97.13 88.8555C98.03 89.6855 99.13 90.2355 100.58 90.2455C102.15 90.2455 103.3 89.6655 104.23 88.7955C105.2 87.8855 105.97 86.6455 106.72 85.3955L108.75 82.0555C109.17 81.0955 109.3 80.4955 109.15 80.2055C109.04 79.9855 108.65 79.9355 108.01 79.9855C107.89 79.9955 107.78 79.9655 107.68 79.9055C107.58 79.9055 107.48 79.9055 107.39 79.8955L107.45 79.5755C107.44 79.5555 107.44 79.5355 107.44 79.5055C107.43 79.3755 107.46 79.2555 107.53 79.1555L107.99 76.8455C104.28 76.7955 101.74 76.1555 98.74 74.2355C97.75 73.6055 97.46 72.8855 96.47 72.9555C95.72 73.0955 95.1 73.4355 94.6 73.9655C94.12 74.4755 93.76 75.1755 93.53 76.0755L93.99 79.7155C93.71 79.7855 93.46 79.7755 93.21 79.7155ZM109.22 79.0355C109.62 79.1555 109.9 79.3855 110.08 79.7455C110.37 80.3355 110.25 81.2255 109.69 82.4955C109.68 82.5155 109.67 82.5355 109.66 82.5555L107.61 85.9355C106.82 87.2355 106.01 88.5455 104.94 89.5555C103.83 90.5955 102.46 91.2955 100.58 91.2855C98.83 91.2855 97.51 90.6155 96.43 89.6255C95.39 88.6755 94.59 87.4355 93.83 86.2355L92.03 83.3755C91.37 82.3855 91.03 81.4855 91 80.7455C90.99 80.3955 91.05 80.0755 91.18 79.8055C91.32 79.5155 91.52 79.2655 91.8 79.0755C91.93 78.9855 92.08 78.9155 92.24 78.8455C92.12 77.2955 92.08 75.3455 92.16 73.7055C92.2 73.3155 92.27 72.9255 92.38 72.5355C92.84 70.8955 94 69.5655 95.42 68.6555C95.92 68.3355 96.48 68.0655 97.06 67.8555C100.52 66.6055 105.11 67.2855 107.57 69.9455C108.57 71.0255 109.2 72.4655 109.33 74.3655L109.22 79.0355ZM87.5 46.6755C86.33 45.6955 86.18 43.9455 87.16 42.7755C88.14 41.6055 89.89 41.4555 91.06 42.4355C91.62 42.9055 92.06 43.2855 92.39 43.5855C92.79 43.9455 93.21 44.3555 93.67 44.7955C95.35 46.4555 96.9 48.2155 98.28 50.0755C99.66 51.9355 100.92 53.9155 102.03 56.0055C102.74 57.3655 102.22 59.0455 100.87 59.7555C99.51 60.4655 97.83 59.9455 97.12 58.5955C96.17 56.7955 95.07 55.0555 93.83 53.4055C92.58 51.7355 91.23 50.1755 89.78 48.7555C89.45 48.4255 89.07 48.0755 88.66 47.6955C88.17 47.2555 87.78 46.9155 87.5 46.6755ZM74.51 115.235C75.96 114.745 77.53 115.535 78.02 116.985C78.51 118.435 77.72 120.006 76.27 120.495C73.96 121.275 71.57 121.875 69.11 122.265C66.68 122.665 64.21 122.866 61.73 122.866C59.2 122.866 56.69 122.656 54.22 122.245C51.69 121.826 49.25 121.206 46.92 120.406C45.47 119.906 44.69 118.325 45.19 116.875C45.69 115.425 47.27 114.646 48.72 115.146C50.8 115.855 52.94 116.405 55.1 116.765C57.23 117.115 59.44 117.305 61.72 117.305C63.96 117.305 66.13 117.125 68.21 116.785C70.38 116.446 72.48 115.915 74.51 115.235Z" fill="white"/>
</svg>
