<svg width="90" height="123" viewBox="0 0 90 123" fill="none" xmlns="http://www.w3.org/2000/svg">
<path fill-rule="evenodd" clip-rule="evenodd" d="M2.85932 82.1036H12.5093C15.6093 77.2936 22.2593 74.7836 28.2093 72.5336C29.6793 71.9736 31.1093 71.4436 32.4093 70.8936C33.0993 69.9836 33.6593 69.0136 34.0993 67.9636C34.4793 67.0636 34.7593 66.1136 34.9493 65.1136C33.8893 64.4836 32.8693 63.7336 31.8993 62.8736C27.9493 59.3736 25.1893 56.5136 23.4093 53.2036C21.5993 49.8436 20.8493 46.1236 20.9493 40.9436L21.2293 29.0836C21.2293 28.9136 21.2593 28.7636 21.3093 28.6136L17.8193 27.4136C17.3193 16.0436 23.7193 9.22362 31.6293 5.79362C34.5193 4.54362 29.6793 -1.75638 36.3193 0.473621C45.1893 3.44362 64.8493 7.31362 69.5093 12.6736C73.2993 17.0336 73.4493 19.4236 73.3593 25.1636C73.3293 27.0236 73.0393 28.6636 72.1493 29.2636C71.7393 29.5336 71.2493 29.6336 70.6893 29.5736V42.0336C70.6893 49.1336 68.1493 55.0636 64.2493 59.4636C62.0493 61.9436 59.4293 63.9236 56.5793 65.3536C56.7493 66.2636 56.9893 67.1436 57.2893 67.9736C57.6393 68.9436 58.0893 69.8736 58.6193 70.7536C59.7593 71.2636 60.8893 71.7236 62.0193 72.1836C67.5793 74.4636 73.2293 76.7736 76.1493 82.0936H86.2493C88.1093 82.0936 89.6193 83.9436 89.1893 86.2036L82.9993 118.774C82.5793 120.994 81.1493 122.884 78.8893 122.884H11.4593C9.19932 122.884 7.83932 120.984 7.34932 118.774L0.0993229 86.2136C-0.400677 83.9536 1.05932 82.1036 2.85932 82.1036ZM44.7993 97.4436C47.5193 97.4436 49.7293 99.6536 49.7293 102.374C49.7293 105.094 47.5193 107.304 44.7993 107.304C42.0793 107.304 39.8693 105.094 39.8693 102.374C39.8693 99.6536 42.0793 97.4436 44.7993 97.4436ZM40.1593 67.2936C39.2693 67.0636 38.3993 66.7636 37.5493 66.4136C37.3393 67.3236 37.0493 68.2036 36.6993 69.0536C36.2493 70.1136 35.6893 71.1336 35.0093 72.0936C35.7593 72.9236 36.5993 73.6336 37.5193 74.2236C39.9993 75.8236 42.9793 76.5736 45.9193 76.5036C48.8393 76.4336 51.6893 75.5436 53.9293 73.8536C54.6993 73.2636 55.3993 72.5836 55.9993 71.8136C55.4793 70.9036 55.0293 69.9436 54.6693 68.9336C54.3893 68.1636 54.1593 67.3636 53.9793 66.5436C51.1193 67.5636 48.2293 68.0736 45.3993 68.0336C43.6093 67.9936 41.8593 67.7536 40.1593 67.2936ZM37.2493 63.1536C38.1693 63.6436 39.1193 64.0336 40.0793 64.3536C41.8793 64.9136 43.7693 65.1936 45.6593 65.1936V65.2036C48.6593 65.2036 51.6993 64.5236 54.5393 63.2336C57.3793 61.9436 59.9993 60.0436 62.1493 57.6236C65.6193 53.7136 67.8693 48.4236 67.8693 42.0536V32.1936C67.8393 31.2536 67.7093 30.3936 67.4693 29.6136C67.2393 28.8636 66.8993 28.1936 66.4393 27.6236C64.7193 25.4736 63.0893 25.4936 60.7593 25.5036C60.5493 25.5036 60.3293 25.5036 60.0393 25.5036C50.8293 25.4736 44.7993 25.1736 39.8993 24.5136C35.3793 23.9036 31.8393 22.9936 27.7193 21.6936C27.3293 22.5636 26.8793 23.4036 26.3493 24.2336C25.6793 25.2836 24.8893 26.2836 23.9993 27.2336L23.7293 41.0136C23.6393 45.6736 24.2993 48.9836 25.8593 51.9036C27.4493 54.8636 30.0293 57.5136 33.7293 60.8036C34.7093 61.6736 35.7593 62.4036 36.8493 63.0136C37.0093 63.0236 37.1393 63.0736 37.2493 63.1536ZM57.1393 37.0136C58.8093 37.0136 60.1693 38.3736 60.1693 40.0436C60.1693 41.7136 58.8093 43.0736 57.1393 43.0736C55.4693 43.0736 54.1093 41.7136 54.1093 40.0436C54.1093 38.3736 55.4593 37.0136 57.1393 37.0136ZM34.2793 37.0136C35.9493 37.0136 37.3093 38.3736 37.3093 40.0436C37.3093 41.7136 35.9493 43.0736 34.2793 43.0736C32.6093 43.0736 31.2493 41.7136 31.2493 40.0436C31.2493 38.3736 32.6093 37.0136 34.2793 37.0136ZM39.5093 54.5936C38.8593 54.1736 38.6793 53.3036 39.0993 52.6536C39.5193 52.0036 40.3893 51.8236 41.0393 52.2436C42.6393 53.2836 44.1693 53.8436 45.6293 53.8636C47.0393 53.8836 48.4393 53.3836 49.8193 52.3136C50.4293 51.8336 51.3193 51.9436 51.7893 52.5636C52.2693 53.1736 52.1593 54.0536 51.5393 54.5336C49.6393 56.0136 47.6493 56.6936 45.5893 56.6736C43.5793 56.6336 41.5493 55.9136 39.5093 54.5936ZM16.0793 82.1036H72.8093C70.1093 78.5336 65.4993 76.6436 60.9593 74.7836C60.0093 74.3936 59.0693 74.0036 58.1593 73.6136C57.3993 74.6436 56.4793 75.5336 55.4393 76.2936C52.9293 78.1136 49.6893 79.1636 46.3393 79.3236C43.0093 79.4836 39.5593 78.7736 36.6193 77.0736C35.1493 76.2336 33.8093 75.1436 32.6793 73.8136C31.5693 74.2636 30.3993 74.7036 29.1993 75.1536C24.3893 76.9736 19.0993 78.9736 16.0793 82.1036Z" fill="white"/>
</svg>
