<svg width="123" height="109" viewBox="0 0 123 109" fill="none" xmlns="http://www.w3.org/2000/svg">
<path fill-rule="evenodd" clip-rule="evenodd" d="M15.61 12.78V77.02H107.18V12.78H15.61ZM24.49 65.87C23.53 65.87 22.74 65.09 22.74 64.12C22.74 63.16 23.52 62.37 24.49 62.37H35.54V36.22C35.54 36.02 35.62 35.83 35.76 35.7C35.79 35.67 35.82 35.65 35.85 35.62C35.97 35.53 36.12 35.48 36.28 35.48H41.86C42.06 35.48 42.25 35.56 42.38 35.7C42.41 35.73 42.44 35.77 42.46 35.8C42.54 35.92 42.59 36.06 42.59 36.22V62.38H50.47V44.02C50.47 43.82 50.55 43.63 50.69 43.5C50.82 43.37 51.01 43.28 51.21 43.28H56.79C57 43.28 57.18 43.36 57.31 43.5C57.44 43.63 57.53 43.82 57.53 44.02V62.38H65.41V28.42C65.41 28.22 65.49 28.03 65.63 27.9C65.76 27.77 65.95 27.68 66.15 27.68H71.73C71.93 27.68 72.12 27.76 72.25 27.9C72.38 28.03 72.47 28.22 72.47 28.42V62.38H80.35V38.45C80.35 38.25 80.43 38.06 80.57 37.93C80.7 37.8 80.89 37.71 81.09 37.71H86.67C86.87 37.71 87.05 37.79 87.19 37.93C87.32 38.06 87.41 38.25 87.41 38.45V62.38H95.15C96.11 62.38 96.9 63.16 96.9 64.13C96.9 65.09 96.12 65.88 95.15 65.88H24.49V65.87ZM58.67 90.97C58.86 90.79 59.08 90.64 59.31 90.54V81.46H2.22C0.99 81.46 0 80.46 0 79.24C0 78.01 0.99 77.02 2.22 77.02H11.16V12.78H2.22C0.99 12.78 0 11.78 0 10.56C0 9.33 0.99 8.34 2.22 8.34H58.98V2.34C58.98 1.05 60.03 0 61.32 0C62.61 0 63.66 1.05 63.66 2.34V8.34H120.42C121.65 8.34 122.64 9.33 122.64 10.56C122.64 11.79 121.65 12.78 120.42 12.78H111.61V77.02H120.65C121.88 77.02 122.87 78.01 122.87 79.24C122.87 80.47 121.88 81.46 120.65 81.46H63.99V90.79C64.06 90.85 64.14 90.91 64.2 90.97L77.3 103.42C78.24 104.31 78.27 105.79 77.38 106.73C76.49 107.67 75.01 107.7 74.07 106.81L63.98 97.22V105.7C63.98 106.99 62.93 108.04 61.64 108.04C60.35 108.04 59.3 106.99 59.3 105.7V96.82L48.79 106.81C47.85 107.7 46.37 107.66 45.48 106.73C44.59 105.79 44.63 104.31 45.56 103.42L58.67 90.97Z" fill="white"/>
</svg>
